
<svg xmlns="http://www.w3.org/2000/svg" width="43.651" height="43.82"><path d="M30.823 1.678l.064.01c-1.526-.384-3.08-.65-4.646-.8L23.584.763l-2.3.124a19.85 19.85 0 0 0-2.2.334l-1.763.462c-.655.2-1.298.432-1.928.7C10.3 4.57 6.612 9.1 5.483 14.516a16.43 16.43 0 0 0 1.232 9.963 15.21 15.21 0 0 0 7.618 7.756c2.176.92 4.552 1.265 6.9 1 1.49-.2 2.945-.62 4.312-1.246a16.6 16.6 0 0 0 2.657-1.529c.235-.168.78-.6 1.865-1.47l1.865-1.47a42.57 42.57 0 0 1 4.418-3.11 10.9 10.9 0 0 1 5.408-1.314c.635.006 1.268.064 1.894.172a24.1 24.1 0 0 1-1.524 7.12 20.4 20.4 0 0 1-2.639 5.023 20.94 20.94 0 0 1-6.5 5.656c-3.486 1.906-7.415 2.853-11.387 2.744a22.7 22.7 0 0 1-12.584-4.2 20.44 20.44 0 0 1-8.99-18.282 23.64 23.64 0 0 1 1.145-6.611c.58-1.746 1.377-3.413 2.37-4.962 1.043-1.616 2.294-3.087 3.72-4.375a20.2 20.2 0 0 1 7.148-4.314A20.63 20.63 0 0 1 20.888.015c3.387-.085 6.76.48 9.935 1.663z" fill="#2eabcc"/><g fill="#00c0ee"><path d="M18.624 17.24a3.45 3.45 0 0 1 2.561.108 4.32 4.32 0 0 1 2.13-1.528 5.3 5.3 0 0 0-.882 1.033 6.28 6.28 0 0 0-.538 1.054 8.5 8.5 0 0 0-.323.9 4.19 4.19 0 0 0-.861-.775 4.71 4.71 0 0 0-1.184-.56 6.19 6.19 0 0 0-.903-.232z"/><circle cx="20.93" cy="16.189" r=".498"/></g><g fill="#d00002"><path d="M25.916 16.354a3.45 3.45 0 0 1 1.867 1.756 4.32 4.32 0 0 1 2.611.237 5.3 5.3 0 0 0-1.343.2 6.28 6.28 0 0 0-1.1.446 8.46 8.46 0 0 0-.835.473 4.21 4.21 0 0 0-.145-1.149 4.72 4.72 0 0 0-.529-1.2 6.23 6.23 0 0 0-.526-.763z"/><circle cx="28.348" cy="17.067" r=".498"/></g><g fill="#0003fc"><path d="M13.88 23.477a3.45 3.45 0 0 1 1.478-2.094c-.313-.838-.358-1.753-.13-2.618a5.29 5.29 0 0 0 .39 1.3c.165.36.364.702.594 1.024.18.264.376.52.585.76-.385.048-.76.15-1.118.3a4.72 4.72 0 0 0-1.111.692c-.245.194-.476.406-.69.635z"/><circle cx="14.245" cy="20.97" r=".498"/></g><g fill="#ffe600"><path d="M12.504 17.62a3.45 3.45 0 0 1 2.111-1.453 4.32 4.32 0 0 1 .784-2.5c-.086.447-.114.902-.084 1.356a6.25 6.25 0 0 0 .2 1.166c.078.31.173.617.285.917a4.19 4.19 0 0 0-1.153-.1 4.71 4.71 0 0 0-1.282.264c-.295.095-.583.212-.86.35z"/><circle cx="13.714" cy="15.393" r=".498"/></g><g fill="#4c9b48"><path d="M16.693 11.76a3.45 3.45 0 0 1 2.56-.113c.47-.76 1.167-1.357 1.99-1.706a5.3 5.3 0 0 0-.79 1.105c-.183.352-.332.72-.445 1.1a8.45 8.45 0 0 0-.244.928c-.274-.275-.585-.51-.924-.7-.386-.208-.8-.362-1.227-.456-.303-.076-.6-.13-.92-.158z"/><circle cx="18.902" cy="10.515" r=".498"/></g><g fill="#fd6503"><path d="M24.412 10.034a3.45 3.45 0 0 1 2.266 1.2 4.32 4.32 0 0 1 2.58-.463 5.29 5.29 0 0 0-1.241.553 6.25 6.25 0 0 0-.939.72 8.47 8.47 0 0 0-.68.677c-.098-.375-.247-.736-.444-1.07-.228-.375-.506-.716-.828-1.014a6.24 6.24 0 0 0-.714-.603z"/><circle cx="26.943" cy="10.077" r=".498"/></g><g fill="#6c0294"><path d="M31.34 12.662a3.45 3.45 0 0 1 .569 2.5c.833.328 1.543.905 2.034 1.654a5.3 5.3 0 0 0-1.228-.58 6.3 6.3 0 0 0-1.159-.242 8.47 8.47 0 0 0-.957-.074 4.2 4.2 0 0 0 .521-1.034 4.7 4.7 0 0 0 .229-1.289c.02-.31.017-.624-.01-.935z"/><circle cx="32.959" cy="14.609" r=".498"/></g><g fill="#2eabcc"><path d="M22.088 33.788a9.66 9.66 0 0 0-.258-5.681 8.95 8.95 0 0 0-.968-1.614c-.876-1.12-1.743-1.574-1.68-1.678.942.2 1.814.637 2.518 1.29a8.04 8.04 0 0 1 1.807 2.066c.416-1.337 1.06-2.593 1.9-3.712.66-.84 1.405-1.61 2.227-2.292.83-.732 1.716-1.4 2.647-2-.96.986-1.846 2.043-2.647 3.163a18.89 18.89 0 0 0-2.066 3.486c-.56 1.06-.9 2.225-.968 3.42a7.05 7.05 0 0 0 .323 2.324l-1.227.58-1.61.645z"/><circle cx="22.992" cy="23.781" r="1.614"/></g><path d="M18.57 7.513a5.23 5.23 0 0 1 1.356-.872c.335-.165.695-.274 1.065-.323a3.06 3.06 0 0 1 1.485.194l.043.018c.408.177.77.447 1.054.79a2.74 2.74 0 0 0-1.775-1.452 2.77 2.77 0 0 0-1.259.1c-.3.096-.583.238-.84.42a4.19 4.19 0 0 0-1.13 1.126z" fill="#0ef00e"/><path d="M27.315 7.657a5.22 5.22 0 0 1 1.587.28c.357.107.695.27 1 .486.4.298.74.693.96 1.15l.02.043c.18.407.262.85.24 1.294.45-1.204-.126-2.55-1.308-3.055a3.06 3.06 0 0 0-.9-.262 4.19 4.19 0 0 0-1.596.064z" fill="#0001fa"/><path d="M33.573 12.965a5.23 5.23 0 0 1 1.054 1.219 3.45 3.45 0 0 1 .47 1.009 3.06 3.06 0 0 1 .018 1.5l-.012.045c-.117.43-.334.825-.632 1.155 1.113-.65 1.516-2.06.914-3.2-.137-.283-.317-.544-.534-.772a4.19 4.19 0 0 0-1.278-.956z" fill="#00c0f1"/><path d="M34.605 19.965c-.18.51-.438.988-.765 1.418a3.45 3.45 0 0 1-.776.8c-.412.295-.9.484-1.393.55h-.047a2.83 2.83 0 0 1-1.3-.18 2.74 2.74 0 0 0 2.256.413c.4-.147.762-.384 1.055-.694a3.05 3.05 0 0 0 .532-.773 4.19 4.19 0 0 0 .438-1.533z" fill="#ff6503"/><path d="M18.38 26.097c-.526.125-1.068.167-1.607.125-.373-.014-.742-.088-1.09-.22a3.06 3.06 0 0 1-1.216-.874l-.03-.037c-.276-.35-.466-.758-.555-1.194a2.74 2.74 0 0 0 .875 2.12 2.77 2.77 0 0 0 1.155.511 3.05 3.05 0 0 0 .938.028c.535-.053 1.054-.21 1.53-.46z" fill="#fbe701"/><path d="M12.363 21.464a5.24 5.24 0 0 1-1.012-1.255 3.44 3.44 0 0 1-.435-1.024 3.06 3.06 0 0 1 .034-1.5l.014-.045c.132-.425.36-.813.67-1.133-1.132.61-1.582 2.004-1.023 3.162a3.05 3.05 0 0 0 .507.79c.346.412.77.753 1.244 1.005z" fill="#008002"/><path d="M12.477 12.288c.076-.535.235-1.055.47-1.54a3.45 3.45 0 0 1 .6-.935A3.06 3.06 0 0 1 14.806 9l.045-.014c.426-.13.876-.157 1.314-.08-1.14-.593-2.546-.185-3.19.927a3.04 3.04 0 0 0-.369.863 4.19 4.19 0 0 0-.128 1.592z" fill="#c00"/></svg>
